<?xml version="1.0" standalone="no"?>
<!DOCTYPE svg PUBLIC "-//W3C//DTD SVG 20010904//EN"
 "http://www.w3.org/TR/2001/REC-SVG-20010904/DTD/svg10.dtd">
<svg version="1.0" xmlns="http://www.w3.org/2000/svg"
 width="2400.000000pt" height="2112.000000pt" viewBox="0 0 2400.000000 2112.000000"
 preserveAspectRatio="xMidYMid meet">

<g transform="translate(0.000000,2112.000000) scale(0.100000,-0.100000)"
fill="#000000" stroke="none">
<path d="M11335 19319 c-297 -35 -475 -65 -670 -113 -488 -120 -1031 -370
-1430 -660 -328 -237 -674 -570 -927 -891 -189 -241 -479 -749 -618 -1086
-130 -314 -224 -637 -260 -896 -34 -248 -42 -361 -47 -673 -4 -270 -2 -367 11
-500 47 -457 153 -836 366 -1300 143 -312 283 -543 443 -729 43 -50 94 -137
90 -152 -1 -3 27 -37 63 -75 35 -38 64 -73 64 -77 0 -5 33 -43 73 -85 39 -43
113 -122 162 -177 126 -138 282 -276 480 -425 271 -203 453 -317 750 -471 390
-202 840 -335 1390 -409 512 -69 917 -42 1515 101 232 55 333 88 590 191 325
130 560 252 808 418 299 200 385 272 700 584 273 269 449 495 686 878 79 128
184 343 261 534 199 490 300 934 337 1484 35 525 -109 1304 -341 1848 -324
757 -802 1381 -1383 1804 -270 197 -408 283 -647 402 -406 204 -842 354 -1221
422 -270 48 -481 64 -843 63 -183 -1 -363 -5 -402 -10z m463 -1265 c30 -7 57
-13 60 -12 12 3 86 -39 104 -59 23 -26 38 -101 32 -162 -3 -31 -1 -51 6 -51
13 0 13 -37 -1 -42 -6 -2 -5 -14 5 -33 15 -28 15 -31 -3 -39 -11 -5 -24 -26
-30 -52 -14 -56 -15 -54 12 -51 13 1 21 -3 20 -10 -2 -7 1 -13 5 -13 5 0 9 -7
9 -15 0 -8 -5 -15 -10 -15 -5 0 -7 -7 -3 -15 3 -8 2 -14 -2 -14 -20 3 -32 -2
-32 -14 0 -8 -9 -24 -20 -37 -11 -13 -20 -26 -20 -30 0 -11 -67 -80 -78 -80
-5 0 -15 -6 -21 -13 -11 -14 -75 -11 -66 3 5 8 -128 44 -157 42 -9 0 -29 15
-44 35 -25 33 -25 35 -5 28 30 -9 38 18 13 43 -11 11 -23 18 -26 14 -7 -6 1
41 15 100 6 24 5 46 -2 65 -13 33 -21 132 -11 147 3 6 7 40 9 76 6 109 21 157
59 188 55 44 68 45 182 16z m-1215 -155 c21 -17 42 -27 48 -23 8 4 9 3 5 -5
-4 -6 -2 -18 4 -26 18 -21 35 -19 19 3 -7 9 6 -1 30 -23 28 -27 40 -33 35 -20
-7 18 -6 18 9 7 8 -8 14 -19 11 -27 -3 -7 0 -16 7 -21 7 -4 10 -3 5 4 -11 19
12 23 26 5 7 -10 22 -23 33 -30 11 -6 19 -16 18 -22 -2 -6 7 -11 18 -11 17 0
20 -5 17 -25 -4 -17 0 -26 12 -30 9 -3 23 -20 31 -38 13 -26 13 -36 3 -56 -12
-23 -12 -23 -19 -2 -3 12 -10 19 -14 16 -16 -9 -3 -56 29 -104 27 -43 31 -59
32 -120 1 -42 -4 -76 -11 -85 -22 -27 -105 -58 -150 -58 -47 1 -131 29 -131
43 0 5 -5 9 -11 9 -16 0 -79 71 -79 89 0 8 -10 25 -22 38 -20 22 -20 24 -4 42
17 18 14 25 -55 157 -40 77 -80 155 -91 174 -39 73 -19 130 55 157 58 21 99
16 140 -18z m2468 9 c79 -42 109 -88 109 -165 0 -51 -6 -68 -48 -140 -135
-235 -227 -354 -289 -369 -36 -10 -160 13 -213 39 -43 21 -45 24 -48 70 -3 40
3 61 34 124 21 41 37 84 37 94 -1 12 3 16 13 12 11 -4 14 0 10 18 -13 61 -10
89 10 89 14 0 14 3 4 15 -10 12 -9 15 4 15 9 0 29 12 45 28 15 15 36 34 47 43
10 8 28 27 39 42 19 27 63 58 115 83 33 16 102 17 131 2z m-1181 -671 c0 -4
-9 -3 -20 3 -11 6 -20 15 -20 20 0 6 9 5 20 -2 11 -7 20 -16 20 -21z m-2895
-913 c17 -2 38 -7 48 -10 10 -3 17 0 17 7 0 8 5 7 18 -3 9 -9 27 -19 40 -23
12 -3 20 -11 17 -16 -3 -5 0 -6 8 -4 7 3 27 -1 43 -10 16 -8 35 -15 42 -15 6
0 12 -5 12 -10 0 -6 11 -15 25 -20 14 -5 25 -14 25 -20 0 -5 7 -10 14 -10 8 0
27 -11 42 -25 15 -14 33 -25 41 -25 8 0 13 -5 11 -12 -2 -6 3 -19 11 -29 30
-32 58 -68 65 -81 4 -7 13 -24 21 -38 17 -30 19 -95 4 -138 -6 -16 -28 -42
-50 -57 -57 -40 -110 -32 -254 39 -63 31 -115 60 -115 65 0 5 -20 14 -45 21
-25 7 -45 16 -45 20 0 4 -13 13 -30 20 -16 7 -30 16 -30 21 0 4 -9 11 -21 14
-35 12 -76 63 -104 132 -25 64 -25 66 -10 120 15 51 19 56 68 79 32 14 62 22
77 19 14 -3 39 -8 55 -11z m5675 -9 c14 -4 35 -17 48 -28 12 -11 22 -16 22
-11 1 5 8 -7 16 -26 31 -71 15 -139 -55 -227 -41 -52 -166 -137 -219 -149 -15
-3 -49 -15 -76 -26 -26 -10 -88 -24 -137 -29 -81 -8 -94 -7 -128 11 -21 10
-42 16 -46 12 -3 -4 -5 -2 -4 3 2 6 -5 25 -15 44 -11 21 -16 48 -14 72 2 22
-1 39 -7 40 -5 0 -4 3 4 6 23 9 81 65 76 73 -3 4 3 7 13 6 9 0 16 5 15 12 -2
6 4 12 13 12 9 0 36 18 61 40 25 22 55 40 66 40 21 0 112 44 179 87 45 28 123
54 148 48 8 -2 26 -7 40 -10z m-2679 -91 c278 -47 524 -173 733 -375 120 -115
198 -220 271 -363 85 -167 130 -336 142 -526 16 -267 -99 -593 -300 -850 -180
-232 -548 -471 -800 -521 -96 -19 -317 -29 -397 -17 -175 25 -379 104 -540
208 -264 172 -500 469 -583 736 -60 190 -78 470 -43 639 58 272 185 501 393
709 198 199 364 291 623 347 153 33 351 38 501 13z m3707 -1359 c91 -29 159
-73 168 -111 4 -14 3 -56 0 -92 -4 -37 -11 -118 -17 -181 -8 -107 -46 -348
-71 -451 -69 -294 -173 -577 -356 -962 -121 -255 -346 -613 -504 -803 -192
-231 -543 -563 -755 -715 -227 -163 -559 -344 -823 -448 -133 -53 -481 -163
-640 -202 -176 -45 -374 -82 -535 -102 -136 -16 -548 -16 -700 0 -534 59
-1107 223 -1550 444 -208 103 -336 184 -563 350 -190 141 -513 448 -663 633
-144 177 -324 445 -450 671 -250 448 -398 865 -474 1334 -15 91 -33 191 -41
223 -8 33 -14 80 -12 105 3 54 -7 52 147 28 256 -40 379 -7 648 170 187 123
206 119 470 -98 28 -24 70 -56 93 -73 24 -16 61 -45 82 -62 37 -31 45 -33 114
-33 69 0 80 3 181 54 139 69 141 70 191 46 22 -11 46 -20 52 -20 11 0 55 -90
84 -172 73 -203 321 -407 575 -473 95 -24 304 -139 502 -276 31 -21 67 -43 80
-48 13 -5 75 -38 137 -74 117 -68 266 -131 393 -167 55 -16 115 -23 234 -27
163 -6 269 6 473 53 221 51 482 204 742 434 47 41 117 102 155 135 39 33 86
74 105 92 41 38 185 119 330 186 58 27 125 65 149 85 47 38 103 110 137 176
18 35 25 41 52 40 18 -1 55 -19 94 -47 94 -68 182 -111 293 -145 211 -65 307
-66 575 -6 97 22 276 114 334 171 79 80 139 183 106 183 -22 0 -8 21 18 26 18
4 40 23 67 61 22 31 58 69 79 85 36 26 46 28 127 28 66 0 108 -6 167 -25z
m-6918 -15 c0 -4 -9 -6 -21 -3 -15 4 -17 8 -8 14 14 8 29 3 29 -11z"/>
<path d="M11974 17506 c-2 -20 1 -22 11 -13 7 7 10 18 8 24 -8 21 -18 15 -19
-11z"/>
<path d="M10680 17805 c7 -9 15 -13 17 -11 7 7 -7 26 -19 26 -6 0 -6 -6 2 -15z"/>
<path d="M9188 16233 c7 -3 16 -2 19 1 4 3 -2 6 -13 5 -11 0 -14 -3 -6 -6z"/>
<path d="M9286 14040 c-16 -10 -77 -35 -135 -55 -60 -21 -154 -64 -217 -101
-61 -35 -116 -64 -121 -64 -17 0 -40 -34 -48 -68 -5 -27 -2 -41 19 -73 15 -21
29 -39 32 -39 4 0 1 6 -5 14 -15 18 -3 46 19 46 27 0 51 -11 45 -20 -3 -5 -1
-11 4 -15 6 -3 15 4 21 15 6 11 17 20 25 20 12 0 12 -4 -2 -19 -40 -44 -43
-49 -30 -55 7 -2 -3 -2 -20 1 -20 3 -33 1 -33 -5 0 -9 27 -20 70 -28 8 -2 16
-8 18 -13 5 -16 59 -13 93 4 16 9 87 53 157 99 70 46 149 92 175 102 72 28
137 100 137 152 0 41 -47 90 -103 107 -62 18 -65 18 -101 -5z m138 -62 c16
-25 2 -31 -32 -14 -45 23 -50 38 -12 34 18 -2 38 -11 44 -20z m-324 -168 c-14
-11 -29 -24 -35 -28 -29 -23 -84 -52 -98 -52 -20 0 -36 27 -30 51 5 18 25 24
66 21 10 -1 16 2 13 7 -8 13 12 19 64 20 l45 0 -25 -19z"/>
<path d="M14123 13995 c-65 -52 -65 -141 1 -189 59 -44 467 -181 561 -188 l40
-3 7 65 8 65 -42 38 c-127 115 -325 207 -500 232 -37 5 -48 2 -75 -20z"/>
<path d="M8840 13682 c0 -7 -7 -9 -17 -5 -15 5 -16 3 -5 -8 9 -10 15 -10 24
-1 6 6 9 15 5 19 -4 3 -7 1 -7 -5z"/>
<path d="M10675 12596 c-14 -14 -38 -52 -52 -84 -13 -31 -69 -146 -124 -256
-54 -109 -99 -206 -99 -216 0 -43 135 -52 190 -12 33 24 186 216 227 284 17
29 40 83 49 120 l18 66 -27 41 c-33 50 -65 71 -116 78 -33 5 -44 1 -66 -21z"/>
<path d="M12745 12598 c-44 -25 -115 -91 -121 -113 -10 -39 15 -102 69 -174
28 -39 78 -105 109 -148 31 -43 79 -102 106 -130 l48 -53 75 0 c46 0 82 5 93
13 17 13 17 16 0 78 -9 35 -32 93 -49 129 -78 158 -195 383 -206 396 -14 17
-95 18 -124 2z m120 -439 l16 -30 -25 17 c-27 17 -31 26 -19 37 10 11 11 9 28
-24z"/>
<path d="M11703 12550 c-12 -5 -30 -21 -40 -37 -16 -25 -18 -54 -17 -333 2
-391 1 -388 149 -378 70 4 96 18 77 41 -8 10 -7 27 3 68 20 74 20 202 -1 359
-15 112 -15 136 -4 171 16 47 10 63 -40 97 -34 23 -87 28 -127 12z"/>
<path d="M15622 9029 c-132 -22 -255 -121 -322 -260 -69 -142 -55 -216 57
-297 37 -28 78 -62 90 -76 13 -14 31 -26 41 -26 15 0 17 -6 14 -36 -4 -29 0
-40 20 -58 28 -23 55 -82 44 -94 -10 -10 -43 37 -50 70 -3 15 -10 28 -14 28
-10 0 -22 -47 -22 -85 0 -31 -33 -36 -245 -41 -318 -6 -352 -21 -427 -184 -42
-93 -55 -104 -109 -93 -35 7 -41 32 -36 158 3 61 13 118 31 175 72 228 76 408
9 435 -10 4 -65 13 -123 21 -82 12 -315 17 -1060 23 -525 5 -959 4 -964 0 -6
-5 -4 -46 4 -106 22 -153 17 -288 -15 -423 -15 -63 -33 -140 -40 -170 -37
-156 -199 -757 -266 -981 -101 -343 -156 -480 -274 -684 -19 -33 -40 -85 -46
-115 -6 -30 -13 -60 -16 -66 -2 -6 4 -19 14 -29 16 -16 33 -17 218 -10 110 4
403 8 652 9 337 1 455 4 464 13 13 13 -34 127 -123 307 -32 63 -41 94 -45 152
-5 67 -3 81 35 186 23 62 51 149 62 193 23 85 75 192 101 208 30 19 81 -14
188 -121 120 -119 190 -179 244 -210 129 -74 242 44 308 322 16 66 49 184 74
261 79 244 81 297 14 364 -47 47 -124 76 -174 67 -37 -7 -109 -73 -180 -162
-87 -110 -203 -169 -281 -144 -74 25 -80 80 -28 275 14 55 37 151 50 213 33
158 79 245 156 292 44 27 162 27 246 1 82 -25 194 -102 242 -165 47 -62 116
-190 125 -231 3 -16 16 -42 29 -56 23 -27 25 -27 97 -18 189 24 196 24 291 -7
49 -15 101 -39 115 -52 44 -41 35 -85 -144 -671 -110 -362 -209 -603 -329
-801 -18 -31 -38 -68 -43 -83 -6 -15 -27 -52 -46 -82 -19 -31 -35 -56 -35 -58
0 -5 1130 3 1218 9 108 7 105 2 67 128 -13 44 -32 123 -40 174 l-16 92 61 193
c34 105 101 316 150 467 49 151 105 329 125 395 20 66 48 152 61 192 31 91 30
96 -6 110 -37 14 -41 37 -5 31 14 -3 25 -1 25 4 0 5 10 7 23 3 l22 -6 -22 17
c-12 8 -34 27 -48 40 -14 13 -40 31 -58 40 -49 25 -115 94 -123 128 -4 17 -18
41 -31 54 -21 20 -24 28 -18 64 9 49 32 71 100 93 100 32 135 55 223 146 117
122 124 134 124 218 0 78 -9 101 -87 206 -53 72 -77 89 -166 120 -46 16 -77
17 -157 4z m13 -569 c3 -5 3 -25 -1 -45 -4 -25 -11 -35 -25 -35 -22 0 -22 2
-8 53 10 37 22 46 34 27z m-100 -80 c3 -5 1 -10 -4 -10 -6 0 -11 5 -11 10 0 6
2 10 4 10 3 0 8 -4 11 -10z"/>
<path d="M6515 8702 c-165 -7 -368 -11 -451 -8 -204 6 -225 -7 -190 -111 23
-67 20 -179 -9 -347 -42 -243 -61 -318 -231 -886 -188 -628 -266 -831 -398
-1035 -55 -86 -86 -147 -86 -170 0 -17 29 -19 270 -20 85 0 379 -5 653 -9 441
-8 497 -7 497 6 0 15 -28 72 -88 178 -17 30 -45 91 -62 134 -48 118 -44 176
25 418 51 179 69 223 101 255 7 7 22 25 34 40 l21 27 36 -19 c20 -11 81 -69
137 -130 186 -203 203 -216 298 -230 86 -13 96 7 236 440 113 347 126 402 125
511 0 51 -4 97 -7 103 -10 16 -98 13 -140 -4 -59 -25 -171 -100 -267 -180 -49
-41 -99 -77 -112 -80 -121 -29 -169 -22 -203 30 -21 32 -15 66 56 295 26 85
55 181 64 212 21 72 87 171 132 199 43 26 85 23 216 -15 164 -48 240 -109 306
-246 58 -120 129 -194 219 -228 l62 -23 38 19 c53 28 67 46 103 136 18 44 54
125 81 180 85 171 108 306 72 416 -21 66 -66 115 -118 128 -34 9 -340 17 -990
25 -71 1 -265 -4 -430 -11z"/>
<path d="M17240 8593 c-129 -12 -288 -57 -395 -111 -63 -31 -204 -131 -270
-190 -27 -25 -66 -55 -85 -68 -50 -33 -162 -72 -257 -88 -93 -17 -96 -18 -200
-89 -84 -56 -101 -85 -77 -122 19 -29 39 -43 174 -121 l105 -60 3 -57 c2 -44
-6 -84 -36 -179 -22 -68 -63 -206 -92 -308 -28 -102 -74 -259 -101 -350 -62
-208 -99 -364 -99 -413 0 -21 6 -52 14 -70 14 -34 84 -99 166 -154 131 -89
460 -148 630 -114 79 15 457 162 520 202 58 36 107 87 115 119 5 21 1 27 -24
37 -28 10 -30 14 -24 45 3 18 15 41 25 51 18 18 18 20 3 37 -10 11 -30 22 -45
25 -28 6 -72 -9 -67 -23 2 -7 -6 -12 -23 -12 -5 0 -7 6 -4 14 7 18 -28 29 -66
21 -16 -4 -57 1 -92 9 -68 17 -108 50 -108 89 0 31 31 127 73 228 20 47 63
166 96 265 49 148 63 206 81 334 29 212 32 215 190 219 98 3 139 18 227 82 80
59 176 139 185 154 10 17 -30 74 -71 102 -30 20 -41 22 -129 16 -121 -7 -160
3 -189 47 -30 43 -29 58 9 192 40 142 40 170 2 208 -30 31 -81 41 -164 33z"/>
<path d="M11565 8579 c-142 -13 -288 -87 -424 -214 -200 -187 -251 -213 -451
-235 -131 -14 -174 -26 -211 -61 -35 -33 -37 -66 -9 -143 29 -77 69 -127 149
-187 39 -28 75 -64 82 -80 15 -37 2 -99 -40 -194 -17 -38 -56 -140 -87 -225
-157 -433 -215 -640 -196 -703 6 -18 13 -53 16 -79 7 -56 43 -133 86 -181 55
-63 168 -132 263 -161 108 -33 288 -50 382 -37 77 11 292 86 424 147 52 24
112 49 135 55 86 23 152 79 125 106 -5 5 -11 30 -13 55 -5 76 -62 148 -80 102
-5 -13 -11 -12 -37 10 -17 14 -38 26 -47 26 -38 0 -162 54 -189 82 -25 26 -28
37 -31 111 -4 97 12 171 68 302 67 159 128 355 150 485 21 126 49 207 81 236
14 12 30 15 66 10 285 -34 344 -15 388 126 16 54 16 59 1 83 -24 37 -51 51
-155 80 -161 45 -192 72 -172 149 14 56 14 119 1 132 -8 8 -8 19 0 38 23 60 4
131 -42 153 -29 15 -140 20 -233 12z"/>
<path d="M8865 8179 c-170 -16 -292 -55 -437 -140 -131 -77 -216 -175 -239
-277 -11 -46 -10 -56 7 -88 26 -50 89 -105 156 -138 30 -15 65 -37 77 -50 19
-21 26 -22 84 -13 34 4 82 10 107 12 44 3 129 25 238 61 65 21 89 52 103 131
6 32 19 94 30 138 25 105 25 115 -6 115 -27 0 -34 14 -11 23 8 3 20 -1 26 -9
7 -8 19 -14 26 -14 18 0 144 -68 170 -92 12 -11 29 -44 39 -74 20 -63 15 -111
-20 -199 -13 -33 -26 -80 -30 -105 -8 -65 -43 -120 -100 -158 -46 -31 -55 -34
-110 -29 -33 2 -116 14 -185 27 -103 18 -147 21 -250 17 -69 -3 -147 -10 -175
-16 -27 -5 -91 -17 -142 -26 -194 -34 -251 -59 -368 -166 -95 -88 -185 -302
-185 -443 0 -206 194 -495 334 -496 23 -1 97 -13 166 -27 86 -18 156 -27 225
-27 94 0 105 2 182 37 46 20 119 65 164 99 120 94 172 128 191 128 11 0 32
-24 55 -62 54 -90 117 -148 190 -177 108 -42 410 -46 521 -8 59 21 207 123
254 176 48 55 76 109 70 136 -2 11 -28 70 -58 130 -30 61 -63 142 -74 182
l-20 71 36 94 c58 152 102 292 123 396 39 192 43 219 44 292 2 68 -2 83 -36
155 -44 93 -73 126 -179 205 -87 66 -179 103 -383 155 -252 64 -381 75 -610
54z m5 -1182 c13 -7 35 -28 47 -46 33 -49 33 -165 -1 -237 -21 -46 -31 -55
-90 -84 -59 -29 -72 -32 -120 -26 -30 3 -66 10 -80 16 -30 11 -66 65 -66 98 0
51 102 206 182 275 24 20 91 23 128 4z m-750 -257 c0 -16 -17 -19 -34 -7 -14
11 -13 12 9 13 14 1 25 -2 25 -6z"/>
<path d="M12865 4753 c-11 -3 -24 -9 -29 -14 -13 -12 -29 -11 -21 1 4 6 -5 10
-21 10 -38 0 -145 -72 -190 -128 -21 -26 -53 -63 -72 -82 -37 -38 -72 -103
-72 -135 0 -11 8 -30 18 -42 26 -34 127 -91 188 -107 48 -13 93 -45 94 -68 0
-4 14 -15 31 -24 29 -14 37 -14 100 0 189 42 274 132 299 314 5 35 4 64 -3 76
-23 45 -103 117 -154 141 -64 29 -89 31 -101 9 -5 -9 -18 -14 -28 -12 -14 2
-19 12 -19 36 0 17 0 31 0 31 0 -1 -9 -3 -20 -6z m-32 -130 c-7 -2 -19 -2 -25
0 -7 3 -2 5 12 5 14 0 19 -2 13 -5z m85 -130 c3 -21 1 -21 -55 -16 -67 7 -67
7 -59 28 4 12 18 15 58 13 46 -3 53 -6 56 -25z"/>
<path d="M18343 4733 c-14 -3 -20 -9 -16 -19 3 -8 -1 -14 -11 -14 -9 0 -16 5
-16 10 0 6 -12 10 -27 10 -20 0 -43 -17 -91 -65 -81 -83 -110 -146 -125 -270
-15 -133 -16 -132 173 -140 131 -5 146 -7 168 -27 18 -18 25 -20 31 -9 6 8 16
11 31 6 18 -6 20 -9 9 -17 -9 -6 8 -8 51 -4 83 8 145 44 180 106 21 38 25 58
25 130 0 75 -4 93 -32 153 -28 58 -38 70 -75 87 -24 11 -50 20 -59 20 -9 0
-51 11 -93 25 -77 25 -82 26 -123 18z m-93 -93 c0 -5 -5 -10 -11 -10 -5 0 -7
5 -4 10 3 6 8 10 11 10 2 0 4 -4 4 -10z m214 -139 c8 -12 -26 -32 -104 -63
-145 -57 -156 -43 -22 28 77 41 116 52 126 35z m81 -61 c3 -5 1 -10 -4 -10 -6
0 -11 5 -11 10 0 6 2 10 4 10 3 0 8 -4 11 -10z"/>
<path d="M9928 4710 c-178 -21 -380 -128 -471 -250 -67 -91 -82 -122 -83 -180
-2 -62 -23 -149 -48 -199 -10 -19 -15 -43 -12 -57 5 -20 2 -24 -29 -30 -19 -3
-52 -15 -72 -25 -21 -11 -45 -19 -54 -19 -9 0 -43 -18 -77 -39 -72 -47 -103
-92 -145 -209 -29 -80 -30 -84 -14 -116 22 -47 104 -115 172 -142 32 -13 64
-24 71 -24 38 0 24 -81 -131 -765 -36 -159 -63 -297 -60 -306 9 -27 30 -31
225 -39 102 -5 231 -14 286 -20 56 -6 121 -10 145 -8 l43 3 17 105 c9 58 35
213 58 345 22 132 47 285 56 340 41 270 56 333 91 375 25 29 28 30 117 30 110
0 166 21 197 72 21 35 26 78 11 93 -12 12 -16 120 -7 155 6 21 -1 35 -35 74
-35 39 -67 60 -178 113 -75 36 -140 66 -146 67 -30 5 -32 17 -12 78 11 35 24
68 29 75 13 17 183 71 242 78 82 9 256 115 296 181 28 44 22 66 -31 133 -53
67 -101 90 -219 107 -104 15 -132 15 -232 4z m227 -141 l20 -9 -20 2 c-11 1
-30 -2 -42 -6 -25 -8 -47 0 -38 15 8 11 53 11 80 -2z m-667 -756 c7 -7 11 -13
7 -13 -9 0 -65 30 -65 34 0 8 46 -8 58 -21z m-60 -50 c-6 -7 -12 -13 -13 -13
-2 0 -5 6 -8 13 -3 7 3 13 14 13 13 0 15 -3 7 -13z m-21 -29 c-3 -3 -12 -4
-19 -1 -8 3 -5 6 6 6 11 1 17 -2 13 -5z m134 -93 c-14 -26 -46 -51 -71 -56
-12 -2 -28 -9 -34 -15 -7 -5 -15 -7 -19 -4 -3 3 -13 -8 -22 -25 -15 -29 -55
-44 -55 -21 0 6 4 10 8 10 11 0 13 48 2 55 -6 3 -10 14 -9 23 0 10 3 12 5 5 3
-7 12 -9 20 -6 10 4 12 0 8 -11 -9 -24 12 -19 34 8 13 18 25 23 40 19 16 -4
29 3 48 26 21 25 29 29 40 20 9 -7 11 -17 5 -28z m-201 19 c0 -5 -2 -10 -4
-10 -3 0 -8 5 -11 10 -3 6 -1 10 4 10 6 0 11 -4 11 -10z m145 -10 c-3 -5 -11
-10 -16 -10 -6 0 -7 5 -4 10 3 6 11 10 16 10 6 0 7 -4 4 -10z"/>
<path d="M9433 3603 c-15 -5 -17 -23 -4 -23 5 0 11 7 15 15 3 8 4 15 3 14 -1
0 -8 -3 -14 -6z"/>
<path d="M13784 4320 c-36 -4 -73 -15 -90 -27 -98 -70 -212 -244 -199 -304 5
-24 3 -29 -12 -29 -10 0 -39 -19 -65 -43 -26 -23 -59 -52 -73 -64 -14 -12 -25
-27 -25 -34 0 -10 3 -10 12 -1 7 7 18 12 26 12 7 0 31 14 52 31 33 27 42 30
55 19 17 -14 10 -34 -11 -26 -7 3 -18 -3 -23 -12 -6 -9 -11 -13 -11 -8 0 5
-11 -1 -24 -13 -13 -12 -27 -21 -32 -20 -30 5 -41 -2 -36 -26 2 -14 11 -25 19
-25 12 0 13 -3 4 -14 -8 -10 -9 -16 -1 -21 5 -3 13 0 16 8 3 9 13 13 24 10 21
-6 90 14 90 26 0 4 -6 13 -12 20 -11 10 -8 10 15 0 22 -10 28 -18 24 -36 -2
-13 0 -23 4 -23 5 0 9 4 9 9 0 5 9 7 20 4 17 -5 18 -7 5 -27 -9 -13 -12 -26
-8 -29 3 -4 0 -7 -8 -7 -12 0 -12 -2 1 -10 12 -8 12 -10 -4 -16 -12 -5 -22 -2
-28 10 -5 9 -13 14 -19 11 -8 -6 -11 2 -8 22 1 9 -31 26 -57 29 -16 1 -21 -2
-17 -12 4 -11 9 -12 19 -3 15 12 23 0 21 -34 0 -12 -6 -16 -19 -11 -12 3 -18
0 -18 -9 0 -11 7 -13 22 -9 22 5 22 6 1 -45 -3 -8 2 -13 12 -13 11 0 15 5 12
14 -3 8 0 17 8 20 10 3 12 0 8 -12 -10 -29 -24 -41 -39 -35 -17 6 -54 -24 -54
-44 0 -9 -7 -12 -24 -7 -32 8 -42 -19 -13 -35 12 -7 35 -30 51 -51 28 -38 30
-45 33 -162 2 -68 4 -127 4 -133 3 -23 -33 -246 -51 -315 -30 -113 -26 -174
15 -276 41 -102 72 -146 130 -183 42 -27 65 -32 255 -61 128 -20 276 -24 334
-10 88 21 94 29 116 165 21 125 24 265 7 265 -6 0 -18 -7 -27 -15 -15 -13 -23
-10 -78 31 -34 25 -64 56 -66 68 -12 57 -15 183 -7 296 6 98 13 135 31 170 44
88 66 108 189 170 106 53 121 64 150 108 55 86 104 196 105 234 1 33 -4 40
-46 67 -26 17 -71 36 -99 41 -28 6 -70 20 -93 32 -60 33 -77 76 -88 222 -5 66
-15 132 -22 146 -11 24 -15 25 -101 24 -50 0 -110 -4 -134 -9 -27 -5 -45 -4
-50 2 -10 17 -42 20 -107 13z m-244 -350 c0 10 3 11 11 3 17 -17 2 -32 -30
-31 -26 1 -27 2 -12 18 11 10 19 13 23 6 5 -7 8 -6 8 4z m40 -172 c0 -10 -34
-10 -43 -1 -4 3 1 12 11 19 16 12 31 3 32 -18z m50 28 c0 -11 -19 -15 -25 -6
-3 5 1 10 9 10 9 0 16 -2 16 -4z m-220 -46 c0 -5 -2 -10 -4 -10 -3 0 -8 5 -11
10 -3 6 -1 10 4 10 6 0 11 -4 11 -10z m40 -10 c0 -5 -5 -10 -11 -10 -5 0 -7 5
-4 10 3 6 8 10 11 10 2 0 4 -4 4 -10z m640 -1142 c0 -43 -16 -33 -34 21 -19
60 -20 73 -4 89 10 10 15 3 25 -35 7 -26 13 -60 13 -75z"/>
<path d="M11125 3970 c-105 -12 -156 -26 -254 -69 -128 -55 -178 -90 -280
-196 -155 -163 -274 -369 -306 -535 -24 -118 -17 -320 14 -405 46 -128 154
-252 310 -357 257 -172 389 -199 676 -139 215 45 274 60 321 80 89 40 194 165
194 233 0 43 -21 63 -116 111 -39 19 -86 45 -105 56 -46 28 -100 27 -149 -4
-22 -14 -43 -25 -46 -25 -4 0 -21 -10 -38 -23 -50 -38 -97 -52 -164 -51 -51 1
-78 9 -137 38 -110 54 -165 142 -151 239 11 74 33 92 104 91 43 -1 71 -8 98
-23 26 -16 45 -20 66 -15 17 3 58 6 91 5 77 -1 180 14 277 41 87 24 169 20
272 -12 64 -20 114 -25 143 -14 28 11 45 61 57 169 13 121 0 298 -27 379 -62
182 -241 348 -445 411 -64 20 -295 28 -405 15z m204 -350 c135 -43 220 -102
242 -167 12 -38 5 -96 -14 -111 -20 -16 -76 -31 -177 -47 -52 -9 -122 -21
-155 -26 -81 -15 -95 -13 -168 17 -75 32 -141 78 -155 108 -19 43 65 142 89
105 7 -11 18 -4 46 28 21 24 50 47 66 53 18 6 27 17 27 30 0 16 5 20 18 16 9
-3 33 -1 52 3 53 13 62 13 129 -9z m-619 -310 c9 -16 8 -18 -5 -14 -11 5 -13
2 -9 -10 3 -9 11 -13 16 -10 6 4 8 -2 3 -15 -4 -12 -2 -27 3 -34 6 -7 22 -66
37 -132 15 -66 31 -124 35 -130 4 -5 14 -30 21 -55 15 -53 27 -72 42 -63 5 3
7 2 4 -4 -4 -5 4 -25 18 -43 13 -17 21 -38 19 -45 -3 -7 -1 -22 5 -32 6 -13 6
-24 -1 -34 -8 -11 -9 -11 -4 4 4 12 0 17 -14 17 -11 0 -20 4 -20 10 0 5 -12 7
-27 4 -33 -6 -38 -2 -84 56 -89 113 -103 159 -104 342 0 82 2 148 5 148 3 0
11 14 17 30 13 35 28 38 43 10z"/>
<path d="M5610 3956 c-145 -23 -283 -71 -366 -127 -164 -111 -302 -305 -368
-516 -35 -112 -46 -189 -46 -318 0 -121 14 -195 60 -313 70 -182 264 -340 495
-404 67 -18 107 -22 245 -22 194 -1 298 17 430 73 165 71 313 198 422 362 119
179 168 355 169 606 0 144 -13 209 -64 313 -80 165 -291 293 -551 335 -132 22
-326 26 -426 11z m199 -507 c131 -23 216 -84 241 -173 9 -33 8 -60 -5 -136
-22 -135 -61 -208 -149 -282 -37 -31 -87 -66 -110 -78 -56 -27 -148 -27 -210
0 -25 10 -46 16 -46 13 0 -4 -6 1 -12 10 -7 10 -23 19 -34 21 -36 7 -63 29
-74 60 -14 42 -12 54 7 31 15 -19 15 -19 8 5 -15 51 -17 161 -5 208 31 114
101 228 175 284 64 49 105 56 214 37z"/>
<path d="M8215 3951 c-33 -10 -98 -33 -145 -52 -79 -31 -93 -33 -195 -32 -87
0 -140 7 -250 33 -130 30 -150 32 -275 27 -164 -5 -203 -19 -231 -81 -18 -43
-51 -205 -69 -341 -54 -426 -104 -689 -186 -990 -24 -88 -44 -172 -44 -186 0
-25 4 -27 58 -32 103 -11 458 -20 505 -13 28 4 55 16 70 31 31 32 73 177 162
560 105 457 130 520 214 558 60 27 156 29 194 5 16 -11 31 -34 38 -60 13 -50
23 8 -151 -940 -9 -53 -14 -102 -10 -108 11 -18 242 -40 432 -40 l167 0 15 28
c27 53 124 424 180 688 31 149 50 370 42 489 -5 84 -10 98 -62 205 -69 140
-129 205 -219 240 -82 30 -165 34 -240 11z"/>
<path d="M12790 3966 c-8 -8 -196 -36 -242 -36 -36 0 -108 -29 -108 -43 0 -3
-4 -28 -10 -57 -5 -29 -12 -82 -15 -119 -2 -36 -9 -93 -14 -126 -15 -90 -44
-335 -45 -375 -1 -19 -4 -37 -7 -40 -3 -3 -14 -52 -23 -110 -9 -58 -26 -154
-36 -215 -67 -371 -81 -461 -78 -503 l3 -47 80 -8 c151 -15 417 8 506 44 29
11 71 85 88 154 9 37 32 232 46 390 8 91 32 316 50 478 10 83 24 149 39 187
23 55 23 62 10 90 -9 16 -13 34 -9 40 3 5 3 10 -2 10 -9 0 -6 96 4 120 3 8 5
22 4 30 -4 19 -48 60 -57 51 -4 -3 -4 2 0 13 5 14 3 17 -11 11 -20 -7 -23 -8
-40 -6 -25 2 -13 19 18 25 40 8 29 22 -23 30 -99 15 -123 17 -128 12z"/>
<path d="M15273 3950 c-172 -33 -371 -107 -450 -167 -62 -48 -91 -150 -59
-211 18 -35 111 -122 129 -122 8 0 20 7 27 15 14 17 70 20 70 4 0 -6 6 -9 14
-6 9 4 17 -1 19 -11 3 -11 7 -7 12 14 6 25 18 35 75 62 37 17 87 36 111 41 60
14 246 13 288 -2 43 -15 56 -54 46 -143 -5 -52 -10 -63 -31 -73 -14 -6 -31
-11 -38 -11 -8 0 -54 -15 -103 -34 -90 -35 -165 -48 -288 -50 -63 -1 -76 -5
-125 -38 -35 -23 -95 -48 -165 -68 -139 -41 -198 -79 -265 -171 -23 -32 -30
-53 -30 -87 0 -25 -5 -59 -11 -76 -21 -59 60 -309 139 -426 31 -46 47 -59 97
-80 56 -23 71 -25 220 -24 93 0 204 8 265 17 212 33 332 36 520 13 69 -9 142
-16 162 -16 35 0 38 3 47 38 5 20 14 87 20 147 7 61 39 244 71 408 71 352 84
450 78 594 -3 101 -6 113 -42 187 -65 134 -145 199 -316 257 -87 30 -107 33
-240 35 -112 3 -168 -1 -247 -16z m489 -392 c64 -45 83 -177 50 -343 -11 -55
-28 -158 -37 -230 -27 -210 -36 -265 -48 -272 -6 -4 -8 0 -4 10 3 10 2 17 -2
17 -5 0 -12 19 -16 42 -7 40 -8 41 -20 18 -27 -51 -30 30 -4 132 5 20 12 54
14 75 10 80 16 120 25 166 19 90 12 200 -16 284 -15 43 -31 82 -35 88 -5 5 -9
17 -9 28 0 15 6 17 36 12 20 -3 50 -15 66 -27z m-307 -544 c43 -28 55 -64 55
-164 0 -131 -17 -157 -150 -229 -91 -49 -151 -54 -215 -18 -74 42 -127 150
-110 227 8 36 124 159 175 185 69 36 190 35 245 -1z m-562 -236 c3 -77 11
-141 22 -170 23 -66 79 -119 171 -161 44 -21 54 -40 17 -31 -90 21 -258 157
-304 247 -39 75 -19 184 40 224 18 12 37 21 41 18 4 -2 10 -60 13 -127z m797
-12 c0 -2 -7 -9 -15 -16 -12 -10 -15 -10 -15 4 0 9 7 16 15 16 8 0 15 -2 15
-4z"/>
<path d="M19579 3950 c-153 -28 -340 -79 -385 -105 -125 -73 -217 -257 -150
-300 19 -13 115 -34 159 -35 4 0 12 -10 17 -22 6 -16 9 -18 9 -7 1 11 17 21
49 29 26 7 76 24 112 38 53 22 82 26 160 27 57 0 104 5 117 13 33 19 63 15 63
-7 0 -28 21 -31 53 -7 39 29 106 25 178 -10 67 -33 83 -56 110 -161 18 -73 20
-104 17 -471 -3 -427 -7 -393 49 -429 15 -10 15 -14 4 -21 -20 -14 -78 7 -96
35 -22 33 -33 301 -22 529 10 221 11 204 -2 252 -10 35 -15 41 -49 47 -20 4
-42 11 -48 16 -7 6 -22 6 -38 -1 -15 -5 -44 -10 -65 -10 -20 0 -41 -4 -46 -9
-34 -31 -233 -69 -390 -72 -110 -3 -152 -16 -310 -96 -154 -78 -215 -157 -249
-325 -31 -152 -17 -243 53 -350 54 -83 127 -153 203 -194 50 -28 59 -29 173
-28 108 1 128 5 205 33 54 20 97 44 120 65 53 52 137 93 195 98 41 2 49 0 46
-12 -12 -46 -10 -58 11 -90 43 -64 145 -83 300 -55 176 31 218 88 188 260 -6
37 -4 74 11 145 71 361 93 561 81 750 -7 122 -11 142 -41 205 -56 121 -100
169 -194 214 -167 80 -379 101 -598 61z m141 -910 c62 -33 100 -110 100 -205
0 -85 -15 -122 -63 -149 -64 -37 -267 -95 -297 -84 -13 5 -39 9 -57 10 -18 1
-33 5 -33 10 0 5 5 6 10 3 6 -3 10 -1 10 4 0 6 7 11 15 11 22 0 18 13 -14 44
-29 28 -49 22 -37 -10 4 -11 0 -14 -17 -12 -33 5 -49 24 -50 63 -1 48 19 67
32 32 6 -15 13 -27 16 -27 4 0 3 4 0 10 -3 5 -8 40 -10 77 l-3 68 67 59 c73
64 101 81 176 108 56 19 100 16 155 -12z m-420 -167 c0 -5 -11 -35 -25 -68
-43 -105 -33 -138 60 -199 30 -21 55 -40 55 -44 0 -5 -27 -14 -60 -21 -57 -13
-62 -12 -107 10 -25 13 -55 36 -65 50 -44 58 -29 166 30 221 44 41 112 72 112
51z m974 -324 c-9 -10 -21 -19 -25 -19 -9 0 9 59 25 79 9 12 12 9 14 -13 2
-16 -4 -36 -14 -47z"/>
<path d="M4100 3950 c-219 -20 -420 -96 -572 -217 -64 -51 -160 -179 -208
-277 -63 -127 -84 -237 -84 -446 -1 -190 14 -271 69 -381 54 -106 245 -276
364 -324 141 -58 269 -64 560 -29 228 28 306 70 331 180 9 39 -20 170 -73 334
-28 87 2 80 -246 60 -179 -14 -306 -10 -340 11 -29 19 -38 61 -45 209 -8 165
6 210 79 257 68 45 129 61 275 74 157 13 300 37 320 52 56 43 173 234 189 306
15 73 14 85 -13 114 -31 34 -104 54 -257 72 -132 16 -213 17 -349 5z"/>
<path d="M16598 3922 c-30 -12 -40 -22 -48 -51 -11 -43 -36 -233 -50 -391 -16
-174 -122 -771 -179 -1010 -28 -115 -27 -136 4 -144 31 -8 454 -36 542 -36
l61 0 16 48 c21 67 141 595 166 732 42 236 51 266 79 274 9 3 70 8 136 11 193
9 212 12 236 47 12 16 57 132 99 256 43 125 81 234 84 243 14 32 -73 38 -228
14 -218 -32 -327 -31 -486 7 -74 18 -388 18 -432 0z"/>
<path d="M18036 3878 c-9 -29 -34 -129 -56 -223 -40 -170 -45 -192 -100 -399
-60 -228 -180 -825 -180 -896 0 -21 5 -42 12 -46 14 -9 490 -7 590 2 67 7 68
7 78 43 6 20 20 99 31 176 53 371 144 846 236 1228 11 42 17 93 15 113 -6 52
-29 58 -202 49 -202 -11 -224 -11 -322 -2 l-87 9 -15 -54z"/>
<path d="M13480 3710 c0 -5 5 -10 11 -10 5 0 7 5 4 10 -3 6 -8 10 -11 10 -2 0
-4 -4 -4 -10z"/>
<path d="M13390 3590 c-9 -6 -10 -10 -3 -10 6 0 15 5 18 10 8 12 4 12 -15 0z"/>
<path d="M13270 3535 c13 -14 26 -23 28 -20 5 5 -36 45 -46 45 -3 0 5 -11 18
-25z"/>
<path d="M13340 3541 c0 -17 18 -21 24 -6 3 9 0 15 -9 15 -8 0 -15 -4 -15 -9z"/>
</g>
</svg>
